<svg id="full-screen" xmlns="http://www.w3.org/2000/svg" width="29.743" height="29.743" viewBox="0 0 29.743 29.743">
  <path id="Path_926" data-name="Path 926" d="M147.25,581.373a.833.833,0,0,0,1.19,0l8.474-8.492v4.982a.855.855,0,1,0,1.709,0v-7.008a.824.824,0,0,0-.818-.855H150.8a.855.855,0,1,0,0,1.709h4.908l-8.456,8.455A.855.855,0,0,0,147.25,581.373Z" transform="translate(-128.881 -570)" fill="#333"/>
  <path id="Path_927" data-name="Path 927" d="M94.855,578.718a.855.855,0,0,0,.855-.855v-4.955l8.46,8.465a.853.853,0,1,0,1.205-1.209l-8.456-8.455h4.935a.855.855,0,1,0,0-1.709H94.845a.846.846,0,0,0-.845.855v7.008A.855.855,0,0,0,94.855,578.718Z" transform="translate(-94 -570)" fill="#333"/>
  <path id="Path_928" data-name="Path 928" d="M147.25,623.25a.833.833,0,0,1,1.19,0l8.474,8.493v-4.982a.855.855,0,1,1,1.709,0v7.008a.824.824,0,0,1-.818.855H150.8a.855.855,0,1,1,0-1.709h4.908l-8.456-8.455A.855.855,0,0,1,147.25,623.25Z" transform="translate(-128.881 -604.88)" fill="#333"/>
  <path id="Path_929" data-name="Path 929" d="M94.855,625.906a.855.855,0,0,1,.855.855v4.955l8.46-8.465a.853.853,0,1,1,1.205,1.209l-8.456,8.455h4.935a.855.855,0,1,1,0,1.709H94.845a.846.846,0,0,1-.845-.855v-7.008A.855.855,0,0,1,94.855,625.906Z" transform="translate(-94 -604.88)" fill="#333"/>
</svg>
